<svg xmlns="http://www.w3.org/2000/svg" viewBox="0 0 64 64" width="64" height="64">
  <defs>
    <linearGradient id="wg" x1="0%" y1="100%" x2="0%" y2="0%">
      <stop offset="0%" style="stop-color:#20B038"/>
      <stop offset="100%" style="stop-color:#60D66A"/>
    </linearGradient>
  </defs>
  <circle cx="32" cy="32" r="30" fill="url(#wg)"/>
  <path d="M32 14c-9.94 0-18 7.5-18 16.76a16.27 16.27 0 0 0 2.5 8.64L14 48l9.06-2.38A18.44 18.44 0 0 0 32 47.52c9.94 0 18-7.5 18-16.76S41.94 14 32 14zm0 30.52a15.4 15.4 0 0 1-7.88-2.16l-.56-.34-5.84 1.54 1.56-5.7-.38-.6A13.52 13.52 0 0 1 17 30.76C17 23.3 23.72 17.2 32 17.2s15 6.1 15 13.56-6.72 13.76-15 13.76zm8.22-10.3c-.44-.22-2.66-1.32-3.08-1.46s-.72-.22-.98.22-.14.17-1.32 1.62c-.24.3-.48.34-.92.12a11.56 11.56 0 0 1-3.4-2.1 12.74 12.74 0 0 1-2.36-2.94c-.24-.44 0-.66.2-.88.18-.2.44-.5.66-.76s.26-.44.42-.72a.78.78 0 0 0-.04-.76c-.12-.22-1-2.38-1.36-3.26-.36-.86-.72-.74-.98-.76h-.84a1.62 1.62 0 0 0-1.18.56 4.96 4.96 0 0 0-1.54 3.68c0 2.18 1.58 4.28 1.8 4.58s3.1 4.74 7.52 6.64c1.06.46 1.88.72 2.52.94.98.32 2.04.28 2.8.16.86-.12 2.66-1.08 3.04-2.14s.38-1.96.26-2.14-.42-.32-.86-.54z" fill="#fff"/>
</svg>
